PathFileType	3	(X/Y/Z)	squats_2__view1_aligned.trc
DataRate	CameraRate	NumFrames	NumMarkers	Units	OrigDataRate	OrigDataStartFrame	OrigNumFrames
100.0	100.0	18	19	mm	100.0	1307	1550
Frame#	Time	pelvis			neck			head			hip_left			hip_right			knee_left			knee_right			ankle_left			ankle_right			heel_left			heel_right			toe_left			toe_right			shoulder_left			shoulder_right			elbow_left			elbow_right			wrist_left			wrist_right			
		X1	Y1	Z1	X2	Y2	Z2	X3	Y3	Z3	X4	Y4	Z4	X5	Y5	Z5	X6	Y6	Z6	X7	Y7	Z7	X8	Y8	Z8	X9	Y9	Z9	X10	Y10	Z10	X11	Y11	Z11	X12	Y12	Z12	X13	Y13	Z13	X14	Y14	Z14	X15	Y15	Z15	X16	Y16	Z16	X17	Y17	Z17	X18	Y18	Z18	X19	Y19	Z19	
1307	13.06000	128.356804	529.484785	23.459095	119.046611	960.561721	-300.401763	110.807457	1062.103025	-439.809578	46.657762	532.520036	25.546340	210.056019	526.449527	21.371683	-76.869833	406.055050	-348.673494	302.838869	377.597202	-353.207627	-1.979817	181.620707	-32.096606	249.566309	142.950074	-40.558060	12.258095	155.910937	19.316893	242.830708	118.522101	14.256431	-64.270607	92.177708	-172.495663	243.888457	42.051986	-189.474203	-61.666264	912.951830	-282.083716	295.099106	913.397559	-264.372994	-5.379047	633.585609	-289.676066	290.897180	628.264000	-268.579541	192.778706	733.535969	-361.779246	197.480592	757.973210	-436.123393
1308	13.07000	130.097809	524.590269	20.555208	121.073982	955.549738	-302.305300	112.937593	1056.837360	-441.675437	48.281614	527.567790	22.645786	211.914177	521.612740	18.464463	-75.915331	404.753825	-351.647698	306.082239	376.126710	-356.261456	0.133310	181.954000	-34.869694	251.801155	143.458202	-42.943111	14.494769	156.420001	16.558947	244.934287	119.292705	11.944426	-62.255004	92.358605	-174.934387	245.941396	42.187027	-191.422739	-59.573993	908.182195	-283.985757	296.856074	908.382288	-266.355540	-3.749681	628.991189	-291.206417	292.737340	623.377487	-270.761747	194.387681	728.989303	-363.040148	197.353170	753.199983	-436.524321
1309	13.08000	131.838814	519.695753	17.651320	123.101354	950.537756	-304.208837	115.067729	1051.571695	-443.541297	49.905466	522.615545	19.745231	213.772335	516.775953	15.557242	-74.960830	403.452601	-354.621903	309.325608	374.656217	-359.315285	2.246437	182.287293	-37.642782	254.036001	143.966329	-45.328162	16.731444	156.929066	13.801001	247.037865	120.063310	9.632420	-60.239402	92.539503	-177.373111	247.994336	42.322068	-193.371276	-57.481723	903.412560	-285.887798	298.613042	903.367017	-268.338087	-2.120315	624.396769	-292.736767	294.577500	618.490975	-272.943953	195.996655	724.442636	-364.301050	197.225748	748.426756	-436.925250
1310	13.09000	133.579819	514.801236	14.747432	125.128725	945.525773	-306.112374	117.197866	1046.306029	-445.407157	51.529318	517.663299	16.844676	215.630493	511.939165	12.650022	-74.006329	402.151377	-357.596107	312.568977	373.185724	-362.369113	4.359564	182.620586	-40.415869	256.270847	144.474457	-47.713212	18.968118	157.438130	11.043055	249.141444	120.833914	7.320415	-58.223799	92.720400	-179.811834	250.047276	42.457109	-195.319812	-55.389452	898.642926	-287.789839	300.370009	898.351747	-270.320634	-0.490949	619.802349	-294.267118	296.417661	613.604463	-275.126160	197.605630	719.895970	-365.561953	197.098326	743.653529	-437.326179
1311	13.10000	135.320824	509.906720	11.843545	127.156097	940.513790	-308.015911	119.328002	1041.040364	-447.273016	53.153170	512.711054	13.944122	217.488651	507.102378	9.742801	-73.051828	400.850153	-360.570312	315.812346	371.715232	-365.422942	6.472692	182.953879	-43.188957	258.505693	144.982584	-50.098263	21.204793	157.947194	8.285109	251.245022	121.604519	5.008410	-56.208196	92.901297	-182.250558	252.100215	42.592150	-197.268349	-53.297182	893.873291	-289.691879	302.126977	893.336476	-272.303181	1.138417	615.207929	-295.797469	298.257821	608.717951	-277.308366	199.214604	715.349304	-366.822855	196.970905	738.880303	-437.727107
1312	13.11000	137.061829	505.012204	8.939657	129.183469	935.501808	-309.919449	121.458138	1035.774699	-449.138876	54.777022	507.758808	11.043567	219.346809	502.265591	6.835581	-72.097327	399.548929	-363.544516	319.055715	370.244739	-368.476771	8.585819	183.287172	-45.962045	260.740539	145.490712	-52.483313	23.441467	158.456258	5.527163	253.348601	122.375124	2.696404	-54.192594	93.082195	-184.689282	254.153155	42.727191	-199.216885	-51.204911	889.103657	-291.593920	303.883945	888.321205	-274.285728	2.767783	610.613509	-297.327820	300.097981	603.831439	-279.490572	200.823578	710.802638	-368.083758	196.843483	734.107076	-438.128036
1313	13.12000	138.802834	500.117687	6.035770	131.210840	930.489825	-311.822986	123.588274	1030.509034	-451.004736	56.400874	502.806563	8.143012	221.204967	497.428803	3.928361	-71.142826	398.247705	-366.518721	322.299084	368.774246	-371.530599	10.698946	183.620465	-48.735133	262.975385	145.998839	-54.868364	25.678142	158.965323	2.769217	255.452179	123.145728	0.384399	-52.176991	93.263092	-187.128005	256.206094	42.862232	-201.165422	-49.112641	884.334022	-293.495961	305.640912	883.305935	-276.268275	4.397149	606.019090	-298.858170	301.938141	598.944927	-281.672778	202.432553	706.255971	-369.344660	196.716061	729.333849	-438.528965
1314	13.13000	140.543839	495.223171	3.131882	133.238212	925.477842	-313.726523	125.718411	1025.243368	-452.870595	58.024726	497.854318	5.242458	223.063125	492.592016	1.021140	-70.188325	396.946480	-369.492925	325.542453	367.303754	-374.584428	12.812073	183.953758	-51.508220	265.210231	146.506967	-57.253414	27.914816	159.474387	0.011271	257.555758	123.916333	-1.927607	-50.161389	93.443989	-189.566729	258.259034	42.997274	-203.113959	-47.020370	879.564388	-295.398002	307.397880	878.290664	-278.250822	6.026515	601.424670	-300.388521	303.778302	594.058415	-283.854984	204.041527	701.709305	-370.605562	196.588639	724.560622	-438.929893
1315	13.14000	142.284844	490.328654	0.227995	135.265584	920.465859	-315.630060	127.848547	1019.977703	-454.736455	59.648578	492.902072	2.341903	224.921283	487.755229	-1.886080	-69.233824	395.645256	-372.467130	328.785822	365.833261	-377.638256	14.925200	184.287051	-54.281308	267.445077	147.015094	-59.638465	30.151491	159.983451	-2.746675	259.659336	124.686937	-4.239612	-48.145786	93.624887	-192.005453	260.311973	43.132315	-205.062495	-44.928100	874.794753	-297.300042	309.154847	873.275393	-280.233369	7.655881	596.830250	-301.918872	305.618462	589.171903	-286.037190	205.650501	697.162639	-371.866465	196.461217	719.787395	-439.330822
1316	13.15000	142.221924	486.035766	-0.542612	135.325906	916.768780	-315.269991	128.181559	1016.210959	-454.413365	59.465744	488.550018	1.558452	224.978277	483.521506	-2.643842	-70.127750	394.410252	-373.600190	330.043631	364.270820	-378.759432	15.095436	184.376697	-55.128444	267.879349	147.357083	-60.010332	30.405087	160.198994	-3.570527	259.984110	125.269198	-4.548209	-47.799750	93.647014	-192.708604	260.552970	43.172209	-205.024298	-44.865398	871.253947	-297.094971	309.147557	869.713666	-279.750209	7.266979	593.460781	-301.924590	305.577920	586.067937	-287.361137	204.931968	693.534214	-372.517472	195.225015	716.820102	-439.503174
1317	13.16000	142.159003	481.742877	-1.313219	135.386229	913.071700	-314.909923	128.514571	1012.444215	-454.090275	59.282909	484.197964	0.775000	225.035270	479.287783	-3.401604	-71.021675	393.175248	-374.733250	331.301441	362.708379	-379.880608	15.265672	184.466343	-55.975580	268.313621	147.699072	-60.382198	30.658683	160.414536	-4.394378	260.308884	125.851459	-4.856807	-47.453713	93.669141	-193.411756	260.793967	43.212104	-204.986100	-44.802696	867.713141	-296.889899	309.140266	866.151939	-279.267050	6.878078	590.091313	-301.930309	305.537378	582.963971	-288.685084	204.213435	689.905789	-373.168480	193.988812	713.852808	-439.675526
1318	13.17000	142.096083	477.449989	-2.083825	135.446551	909.374621	-314.549854	128.847583	1008.677471	-453.767186	59.100074	479.845910	-0.008451	225.092264	475.054060	-4.159366	-71.915601	391.940245	-375.866310	332.559250	361.145938	-381.001784	15.435908	184.555989	-56.822715	268.747893	148.041060	-60.754065	30.912279	160.630078	-5.218230	260.633657	126.433719	-5.165404	-47.107677	93.691267	-194.114908	261.034963	43.251999	-204.947903	-44.739994	864.172336	-296.684827	309.132975	862.590213	-278.783891	6.489176	586.721844	-301.936028	305.496836	579.860005	-290.009030	203.494901	686.277364	-373.819487	192.752610	710.885514	-439.847878
1319	13.18000	142.033163	473.157100	-2.854432	135.506873	905.677542	-314.189786	129.180596	1004.910727	-453.444096	58.917239	475.493856	-0.791902	225.149258	470.820337	-4.917128	-72.809527	390.705241	-376.999370	333.817060	359.583497	-382.122960	15.606144	184.645635	-57.669851	269.182166	148.383049	-61.125932	31.165875	160.845621	-6.042082	260.958431	127.015980	-5.474002	-46.761641	93.713394	-194.818060	261.275960	43.291893	-204.909705	-44.677292	860.631530	-296.479755	309.125684	859.028486	-278.300732	6.100275	583.352376	-301.941747	305.456294	576.756039	-291.332977	202.776368	682.648939	-374.470494	191.516407	707.918220	-440.020229
1320	13.19000	141.970242	468.864212	-3.625039	135.567196	901.980462	-313.829718	129.513608	1001.143983	-453.121006	58.734405	471.141802	-1.575354	225.206252	466.586614	-5.674890	-73.703453	389.470237	-378.132431	335.074869	358.021056	-383.244135	15.776380	184.735281	-58.516987	269.616438	148.725037	-61.497798	31.419471	161.061163	-6.865933	261.283204	127.598241	-5.782599	-46.415605	93.735521	-195.521212	261.516956	43.331788	-204.871508	-44.614590	857.090724	-296.274683	309.118394	855.466759	-277.817573	5.711373	579.982907	-301.947466	305.415752	573.652073	-292.656923	202.057835	679.020515	-375.121501	190.280205	704.950926	-440.192581
1321	13.20000	141.907322	464.571323	-4.395645	135.627518	898.283383	-313.469649	129.846620	997.377239	-452.797916	58.551570	466.789748	-2.358805	225.263246	462.352891	-6.432653	-74.597379	388.235233	-379.265491	336.332679	356.458615	-384.365311	15.946616	184.824927	-59.364123	270.050710	149.067026	-61.869665	31.673067	161.276705	-7.689785	261.607978	128.180501	-6.091196	-46.069569	93.757648	-196.224364	261.757953	43.371683	-204.833310	-44.551888	853.549918	-296.069612	309.111103	851.905032	-277.334414	5.322471	576.613439	-301.953184	305.375209	570.548108	-293.980870	201.339301	675.392090	-375.772509	189.044003	701.983632	-440.364933
1322	13.21000	141.844401	460.278435	-5.166252	135.687841	894.586303	-313.109581	130.179632	993.610495	-452.474827	58.368735	462.437694	-3.142256	225.320239	458.119168	-7.190415	-75.491305	387.000229	-380.398551	337.590489	354.896174	-385.486487	16.116852	184.914573	-60.211258	270.484982	149.409015	-62.241531	31.926663	161.492248	-8.513637	261.932751	128.762762	-6.399794	-45.723532	93.779775	-196.927515	261.998950	43.411577	-204.795113	-44.489185	850.009113	-295.864540	309.103812	848.343305	-276.851255	4.933570	573.243971	-301.958903	305.334667	567.444142	-295.304816	200.620768	671.763665	-376.423516	187.807800	699.016338	-440.537285
1323	13.22000	141.781481	455.985546	-5.936859	135.748163	890.889224	-312.749512	130.512645	989.843751	-452.151737	58.185901	458.085640	-3.925708	225.377233	453.885445	-7.948177	-76.385231	385.765225	-381.531611	338.848298	353.333733	-386.607663	16.287088	185.004218	-61.058394	270.919255	149.751003	-62.613398	32.180260	161.707790	-9.337488	262.257525	129.345023	-6.708391	-45.377496	93.801902	-197.630667	262.239946	43.451472	-204.756915	-44.426483	846.468307	-295.659468	309.096521	844.781578	-276.368095	4.544668	569.874502	-301.964622	305.294125	564.340176	-296.628763	199.902235	668.135240	-377.074523	186.571598	696.049044	-440.709637
1324	13.23000	141.718560	451.692658	-6.707465	135.808485	887.192144	-312.389444	130.845657	986.077006	-451.828647	58.003066	453.733586	-4.709159	225.434227	449.651722	-8.705939	-77.279157	384.530221	-382.664671	340.106108	351.771292	-387.728839	16.457324	185.093864	-61.905530	271.353527	150.092992	-62.985265	32.433856	161.923332	-10.161340	262.582299	129.927283	-7.016989	-45.031460	93.824029	-198.333819	262.480943	43.491367	-204.718718	-44.363781	842.927501	-295.454396	309.089230	841.219851	-275.884936	4.155766	566.505034	-301.970341	305.253583	561.236210	-297.952709	199.183701	664.506815	-377.725531	185.335395	693.081751	-440.881989
